# xmcd
#
# Track frame offsets:
# 150
# 17519
# 41590
# 60722
# 77743
# 93475
# 111478
# 130115
#
# Disc length: 1943 seconds
#
#
# Revision: 0
# Processed by: cddbd v1.5.2PL0 Copyright (c) Steve Scherf et al.
# Submitted via: FreeRIP 2.945 
#
DISCID=62079508
DTITLE=Switch - Switch
DYEAR=1900
DGENRE=R&B
TTITLE0=I Wanna Be With You
TTITLE1=There'll Never Be
TTITLE2=I Wanna Be Closer
TTITLE3=We Like To Party...Come On
TTITLE4=Fever
TTITLE5=You Pulled A Switch
TTITLE6=It's So Real
TTITLE7=Somebody's Watchin' You
EXTD=
EXTT0=
EXTT1=
EXTT2=
EXTT3=
EXTT4=
EXTT5=
EXTT6=
EXTT7=
PLAYORDER=
